<svg xmlns="http://www.w3.org/2000/svg" viewBox="0 0 240 180" fill="none">
  <path d="M191 87.6C191 133.1 151.8 168 105.3 168C75.9 168 51.3 145 51.3 117.3C51.3 100.8 59.3 86.3 71.9 77.4C65.4 69.1 61.8 58.7 61.8 47.4C61.8 20.9 86.3 2 117.4 2C159.4 2 191 35.4 191 87.6Z" fill="#FFCAD4"/>
  <path d="M146.4 36.7C157.9 48.5 164.8 64.8 164.8 82.6C164.8 120.6 135.1 150.8 97.2 155.4C122.6 161.4 145.3 154.5 161.2 136.6C176.4 119.4 182 93.8 175.4 71.2C170.8 55.3 161.1 42.5 146.4 36.7Z" fill="#F3B7C4"/>
  <path d="M29.9 72.5C24.8 72.5 20.4 74.1 16.4 77.2C12.5 80.4 10.3 84.4 10.3 88.9C10.3 92.7 11.8 95.8 14.7 97.8C17.4 99.6 21 100.6 25.8 100.6C30.3 100.6 34.2 99.8 37.4 98.5L36.1 94.8C33.8 95.7 31.2 96.2 28.6 96.2C21.9 96.2 18.4 93.8 18.4 88.7C18.4 85.5 19.9 82.9 22.6 80.7C25.2 78.5 28.5 77.3 32.4 77.3C35.7 77.3 38.3 77.9 40.3 79.3C42.3 80.7 43.4 82.7 43.4 85.4C43.4 88.2 42.3 90.9 40.2 93.7C38.2 96.3 35.8 99.1 32.9 101.9C30 104.5 27.8 106.5 26 107.8L28.3 111.1C30.8 109.4 33.8 106.9 37.2 103.7C40.5 100.5 43.3 96.9 45.4 93.2C47.5 89.5 48.6 86 48.6 82.5C48.6 78.5 46.8 75.3 43.4 72.9C40.2 70.9 35.8 69.9 29.9 72.5Z" fill="#785E61"/>
  <path d="M90.2 67.4C91.9 67.4 93.4 68 94.5 69.2C95.5 70.2 96 71.6 96 73.2C96 75 95.4 76.6 94 78C92.6 79.2 90.9 79.8 89.1 79.8C87.2 79.8 85.6 79.2 84.3 78.1C83 76.8 82.4 75.3 82.4 73.4C82.4 71.6 83 70.1 84.2 69C85.5 68 87.5 67.4 90.2 67.4ZM82.3 85.5H96.5L91.7 129.3H77.7L82.3 85.5Z" fill="#785E61"/>
  <path d="M114.2 83.8C119.4 83.8 123.4 85.4 126.2 88.5C129 91.5 130.4 95.7 130.4 101.1C130.4 106.9 129.1 112.5 126.3 117.7C123.4 122.8 119.5 126.9 114.6 130.1C109.6 133.3 104.1 134.9 98.3 134.9C93.1 134.9 89 133.3 85.9 130.2C82.9 127.1 81.4 122.8 81.4 117.5C81.4 111.7 82.8 106.2 85.7 101C88.6 95.8 92.5 91.7 97.5 88.5C102.4 85.4 108 83.8 114.2 83.8ZM100.5 127.5C103.8 127.5 106.8 126.4 109.5 124.3C112.2 122.1 114.4 119.1 116 115.3C117.6 111.4 118.4 107.2 118.4 102.8C118.4 99.8 117.7 97.5 116.3 95.8C115 93.9 113.1 92.9 110.6 92.9C107.3 92.9 104.3 94 101.5 96.2C98.8 98.4 96.6 101.4 95.1 105.3C93.4 109 92.6 113.2 92.6 117.7C92.6 120.6 93.3 123 94.8 124.8C96.2 126.6 98.1 127.5 100.5 127.5Z" fill="#785E61"/>
  <path d="M120.8 129.3L125.5 85.5H137.8L136.8 95.2C139.5 91.7 142.3 89.1 145.4 87.3C148.3 85.4 151.7 84.4 155.5 84.4C156.8 84.4 158 84.5 159.1 84.8L157.6 96.4C156.8 96.3 155.9 96.2 155 96.2C149.8 96.2 145.7 97.8 142.5 101C139.3 104 137.2 108.5 136.3 114.3L134.7 129.3H120.8Z" fill="#785E61"/>
</svg>
