<svg width="199" height="182" viewBox="0 0 199 182" fill="none" xmlns="http://www.w3.org/2000/svg">
<path d="M1.26588 59.7502C-1.19696 69.9932 0.57126 84.0528 1.26588 86.7405C1.9605 89.4281 2.17275 91.392 3.49416 93.488C4.81557 95.584 6.06611 96.3884 7.95073 97.9864C9.83536 99.5843 11.861 101.006 14.6356 102.485C17.4101 103.963 24.8013 104.826 30.2336 106.983C35.6659 109.14 41.0406 110.774 43.6033 113.731C46.166 116.687 47.3427 118.867 48.0599 122.727C48.7771 126.588 44.2576 133.243 43.6033 138.472C42.949 143.7 42.4606 146.824 43.6033 151.967C44.746 157.109 48.1661 163.782 52.5164 167.711C56.8668 171.64 60.4722 172.255 65.8861 174.459C71.3001 176.662 86.688 180.194 97.0821 181.206C107.476 182.219 117.581 182.31 123.822 181.206C130.062 180.103 133.494 178.969 139.42 176.708C145.345 174.447 150.736 172.018 157.246 167.711C163.755 163.404 169.227 159.204 175.072 151.967C180.917 144.73 188.852 125.001 190.67 113.731C192.488 102.46 192.199 92.6801 190.67 84.4913C189.142 76.3025 187.821 71.6275 183.985 64.2486C180.15 56.8697 171.644 47.863 161.702 39.5076C151.761 31.1522 123.739 17.744 112.68 14.7666C101.621 11.7891 95.1469 10.7801 83.7124 10.2682L83.5946 10.2629C72.2233 9.75384 64.2896 9.39864 52.5164 12.5174C40.7027 15.6469 31.5324 19.1638 21.3204 28.2617C11.1084 37.3596 3.72872 49.5073 1.26588 59.7502Z" fill="#FFB3C1"/>
<path d="M7.88406 49.823C5.42123 60.066 7.18945 74.1255 7.88406 76.8132C8.57868 79.5009 8.79094 81.4648 10.1123 83.5607C11.4338 85.6567 12.6843 86.4612 14.5689 88.0591C16.4535 89.657 18.4792 91.0788 21.2538 92.5575C24.0283 94.0362 31.4195 94.8989 36.8518 97.0558C42.2841 99.2127 47.6588 100.847 50.2215 103.803C52.7841 106.76 53.9609 108.939 54.6781 112.8C55.3952 116.661 50.8758 123.316 50.2215 128.544C49.5672 133.773 49.0788 136.897 50.2215 142.039C51.3642 147.182 54.7843 153.855 59.1346 157.784C63.4849 161.713 67.0904 162.328 72.5043 164.531C77.9182 166.735 93.3062 170.266 103.7 171.279C114.094 172.291 124.2 172.382 130.44 171.279C136.68 170.175 140.112 169.042 146.038 166.781C151.964 164.519 157.354 162.09 163.864 157.784C170.374 153.477 175.845 149.276 181.69 142.039C187.535 134.803 195.471 115.074 197.288 103.803C199.106 92.5331 198.817 82.7528 197.288 74.564C195.76 66.3752 194.439 61.7002 190.603 54.3213C186.768 46.9425 178.262 37.9357 168.321 29.5803C158.379 21.2249 130.357 7.81675 119.298 4.83931C108.239 1.86187 101.765 0.852824 90.3306 0.340941L90.2127 0.335664C78.8415 -0.173435 70.9077 -0.528632 59.1346 2.59012C47.3209 5.71965 38.1506 9.23652 27.9386 18.3344C17.7266 27.4323 10.3469 39.58 7.88406 49.823Z" fill="#FECBD4"/>
<path d="M112.778 125.883C112.84 125.992 112.871 126.125 112.871 126.281C112.871 126.516 112.785 126.719 112.614 126.891C112.457 127.062 112.246 127.148 111.981 127.148C111.809 127.148 111.653 127.109 111.512 127.031C111.387 126.953 111.285 126.836 111.207 126.68C110.91 126.102 110.645 125.383 110.41 124.523C110.192 123.648 109.996 122.68 109.824 121.617C109.668 120.555 109.535 119.414 109.426 118.195C109.332 116.961 109.254 115.688 109.192 114.375C108.02 114.531 106.699 114.703 105.231 114.891C103.778 115.078 102.114 115.297 100.239 115.547C98.9261 115.734 97.5901 115.898 96.2307 116.039C92.887 119.68 89.3636 122.445 85.6604 124.336C81.9729 126.211 78.2698 127.148 74.5511 127.148C72.8948 127.148 71.4573 126.984 70.2386 126.656C69.0354 126.344 68.0354 125.992 67.2386 125.602C66.4573 125.195 65.8714 124.82 65.4807 124.477C65.0745 124.133 64.8557 123.945 64.8245 123.914C64.6682 123.758 64.5901 123.555 64.5901 123.305C64.5901 123.055 64.6761 122.844 64.8479 122.672C65.0198 122.5 65.2229 122.414 65.4573 122.414C65.7229 122.414 65.9417 122.508 66.1136 122.695C66.1448 122.727 66.3323 122.891 66.6761 123.188C67.0198 123.469 67.5276 123.773 68.1995 124.102C68.887 124.43 69.7542 124.727 70.8011 124.992C71.8479 125.258 73.0901 125.391 74.5276 125.391C76.4964 125.391 78.3792 125.125 80.1761 124.594C81.9729 124.062 83.6682 123.375 85.262 122.531C86.8714 121.672 88.3636 120.695 89.7386 119.602C91.1292 118.508 92.387 117.398 93.512 116.273C92.4026 116.367 91.3011 116.438 90.2073 116.484C89.1136 116.531 88.0354 116.555 86.9729 116.555C84.8792 116.555 82.887 116.438 80.9964 116.203C79.1057 115.969 77.4417 115.578 76.0042 115.031C74.5667 114.469 73.4182 113.727 72.5589 112.805C71.7151 111.883 71.2932 110.734 71.2932 109.359C71.2932 108.734 71.4182 108.109 71.6682 107.484C71.9339 106.859 72.2464 106.297 72.6057 105.797C72.9651 105.281 73.3401 104.867 73.7307 104.555C74.1214 104.227 74.4573 104.062 74.7386 104.062C74.9573 104.062 75.1604 104.141 75.3479 104.297C75.5354 104.453 75.6292 104.664 75.6292 104.93C75.6292 105.07 75.5979 105.211 75.5354 105.352C75.4729 105.477 75.3792 105.578 75.2542 105.656C75.2229 105.688 75.0901 105.797 74.8557 105.984C74.6214 106.172 74.3714 106.43 74.1057 106.758C73.8401 107.07 73.5979 107.453 73.3792 107.906C73.1604 108.344 73.0511 108.82 73.0511 109.336C73.0511 110.227 73.3557 111.016 73.9651 111.703C74.5901 112.375 75.4886 112.945 76.6604 113.414C77.8479 113.867 79.3011 114.211 81.0198 114.445C82.7386 114.68 84.6995 114.797 86.9026 114.797C88.1682 114.797 89.5042 114.758 90.9104 114.68C92.3167 114.602 93.8011 114.484 95.3636 114.328C96.1136 113.5 96.7776 112.719 97.3557 111.984C97.9339 111.25 98.4261 110.594 98.8323 110.016C99.5042 109.062 100.207 108.047 100.942 106.969C101.676 105.891 102.403 104.797 103.121 103.688C103.856 102.578 104.567 101.484 105.254 100.406C105.957 99.3125 106.614 98.2891 107.223 97.3359C107.832 96.3672 108.379 95.4922 108.864 94.7109C109.348 93.9141 109.746 93.2578 110.059 92.7422C110.153 92.3203 110.293 91.9375 110.481 91.5938C110.668 91.2344 110.973 91.0547 111.395 91.0547C111.629 91.0547 111.856 91.1562 112.074 91.3594C112.293 91.5469 112.403 91.7891 112.403 92.0859C112.403 92.3047 112.324 92.5391 112.168 92.7891C112.012 93.0391 111.864 93.25 111.723 93.4219C111.676 93.7188 111.598 94.3516 111.489 95.3203C111.395 96.2891 111.293 97.4766 111.184 98.8828C111.09 100.273 111.004 101.812 110.926 103.5C110.864 105.172 110.832 106.867 110.832 108.586C110.832 109.227 110.832 109.859 110.832 110.484C110.832 111.109 110.848 111.742 110.879 112.383C113.223 112.086 114.934 111.883 116.012 111.773C117.09 111.648 117.66 111.586 117.723 111.586C117.926 111.586 118.121 111.672 118.309 111.844C118.512 112 118.614 112.211 118.614 112.477C118.614 112.695 118.535 112.891 118.379 113.062C118.239 113.219 118.051 113.312 117.817 113.344C117.535 113.375 117.207 113.414 116.832 113.461C116.457 113.508 115.996 113.562 115.449 113.625C114.903 113.688 114.262 113.766 113.528 113.859C112.793 113.938 111.934 114.039 110.949 114.164C110.996 115.445 111.067 116.68 111.16 117.867C111.27 119.039 111.395 120.133 111.535 121.148C111.692 122.164 111.871 123.078 112.074 123.891C112.278 124.703 112.512 125.367 112.778 125.883ZM100.004 113.789C101.848 113.539 103.52 113.32 105.02 113.133C106.535 112.93 107.903 112.75 109.121 112.594C109.106 111.922 109.09 111.25 109.074 110.578C109.074 109.906 109.074 109.227 109.074 108.539C109.074 106.336 109.114 104.234 109.192 102.234C109.27 100.219 109.379 98.4688 109.52 96.9844C108.895 97.9688 108.199 99.0625 107.434 100.266C106.684 101.453 105.903 102.672 105.09 103.922C104.278 105.156 103.457 106.383 102.629 107.602C101.801 108.82 101.012 109.961 100.262 111.023C99.887 111.555 99.5042 112.07 99.1136 112.57C98.7229 113.07 98.3323 113.562 97.9417 114.047C98.2854 114.016 98.6214 113.977 98.9495 113.93C99.2932 113.883 99.6448 113.836 100.004 113.789ZM122.926 116.367C122.864 116.789 122.785 117.188 122.692 117.562C122.598 117.922 122.504 118.242 122.41 118.523C122.332 118.789 122.262 119.008 122.199 119.18C122.137 119.352 122.098 119.445 122.082 119.461C121.926 119.82 121.653 120 121.262 120C121.043 120 120.84 119.922 120.653 119.766C120.465 119.594 120.371 119.383 120.371 119.133C120.371 119.039 120.387 118.969 120.418 118.922C120.449 118.875 120.496 118.781 120.559 118.641C120.621 118.5 120.699 118.266 120.793 117.938C120.887 117.609 121.004 117.102 121.145 116.414C120.879 116.414 120.606 116.406 120.324 116.391C120.043 116.375 119.785 116.32 119.551 116.227C119.301 116.133 119.098 115.984 118.942 115.781C118.785 115.578 118.707 115.297 118.707 114.938C118.707 114.672 118.785 114.312 118.942 113.859C119.082 113.406 119.278 112.961 119.528 112.523C119.778 112.086 120.059 111.711 120.371 111.398C120.684 111.07 120.996 110.906 121.309 110.906C121.668 110.906 121.957 111.039 122.176 111.305C122.41 111.57 122.59 111.898 122.715 112.289C122.84 112.664 122.926 113.062 122.973 113.484C123.035 113.906 123.067 114.273 123.067 114.586C123.332 114.586 123.59 114.586 123.84 114.586C124.106 114.57 124.356 114.562 124.59 114.562C125.481 114.562 126.16 114.758 126.629 115.148C127.098 115.539 127.332 116.18 127.332 117.07C127.332 117.43 127.309 117.805 127.262 118.195C127.215 118.586 127.16 118.992 127.098 119.414C127.035 119.82 126.981 120.227 126.934 120.633C126.887 121.039 126.864 121.438 126.864 121.828C126.864 122.391 126.942 122.859 127.098 123.234C127.254 123.594 127.449 123.883 127.684 124.102C127.918 124.32 128.168 124.477 128.434 124.57C128.699 124.648 128.942 124.688 129.16 124.688C129.832 124.688 130.465 124.469 131.059 124.031C131.653 123.594 132.199 123.07 132.699 122.461C133.199 121.836 133.645 121.18 134.035 120.492C134.442 119.805 134.778 119.203 135.043 118.688C135.121 118.547 135.231 118.438 135.371 118.359C135.512 118.281 135.66 118.242 135.817 118.242C136.098 118.242 136.317 118.336 136.473 118.523C136.629 118.695 136.707 118.891 136.707 119.109C136.707 119.266 136.676 119.406 136.614 119.531C136.254 120.172 135.832 120.898 135.348 121.711C134.879 122.508 134.34 123.258 133.731 123.961C133.121 124.664 132.434 125.258 131.668 125.742C130.918 126.227 130.09 126.469 129.184 126.469C128.621 126.469 128.09 126.359 127.59 126.141C127.09 125.938 126.653 125.641 126.278 125.25C125.918 124.844 125.629 124.352 125.41 123.773C125.192 123.18 125.082 122.516 125.082 121.781C125.082 121 125.16 120.227 125.317 119.461C125.473 118.68 125.551 117.938 125.551 117.234C125.551 116.938 125.481 116.719 125.34 116.578C125.215 116.422 124.926 116.344 124.473 116.344C124.254 116.344 124.012 116.344 123.746 116.344C123.496 116.344 123.223 116.352 122.926 116.367ZM121.356 114.633C121.356 114.523 121.348 114.383 121.332 114.211C121.332 114.023 121.317 113.844 121.285 113.672C121.27 113.5 121.239 113.352 121.192 113.227C121.16 113.102 121.121 113.039 121.074 113.039C121.028 113.039 120.965 113.102 120.887 113.227C120.824 113.336 120.754 113.477 120.676 113.648C120.598 113.805 120.528 113.977 120.465 114.164C120.403 114.352 120.356 114.508 120.324 114.633H121.356ZM154.028 102.539C154.028 102.789 153.942 102.992 153.77 103.148C153.598 103.289 153.387 103.359 153.137 103.359H141.254V103.617C141.254 104.57 141.184 105.586 141.043 106.664C140.903 107.742 140.707 108.82 140.457 109.898C140.223 110.961 139.949 112 139.637 113.016C139.34 114.031 139.028 114.969 138.699 115.828C138.387 116.688 138.074 117.438 137.762 118.078C137.449 118.703 137.168 119.172 136.918 119.484C137.121 120.203 137.364 120.875 137.645 121.5C137.926 122.109 138.239 122.648 138.582 123.117C138.942 123.57 139.324 123.93 139.731 124.195C140.137 124.461 140.574 124.594 141.043 124.594C141.59 124.594 142.129 124.367 142.66 123.914C143.207 123.445 143.707 122.898 144.16 122.273C144.629 121.633 145.035 120.992 145.379 120.352C145.739 119.695 145.996 119.172 146.153 118.781C146.309 118.406 146.582 118.219 146.973 118.219C147.239 118.219 147.449 118.312 147.606 118.5C147.778 118.688 147.864 118.891 147.864 119.109C147.864 119.219 147.84 119.328 147.793 119.438C147.746 119.547 147.629 119.797 147.442 120.188C147.27 120.578 147.035 121.031 146.739 121.547C146.457 122.062 146.121 122.609 145.731 123.188C145.356 123.75 144.926 124.266 144.442 124.734C143.973 125.203 143.465 125.594 142.918 125.906C142.371 126.219 141.793 126.375 141.184 126.375C140.106 126.375 139.137 126.023 138.278 125.32C137.418 124.617 136.684 123.633 136.074 122.367C135.481 121.102 135.028 119.602 134.715 117.867C134.403 116.133 134.246 114.234 134.246 112.172C134.246 111.656 134.254 111.055 134.27 110.367C134.285 109.664 134.317 108.93 134.364 108.164C134.41 107.383 134.481 106.586 134.574 105.773C134.668 104.945 134.793 104.141 134.949 103.359H126.535C126.285 103.359 126.074 103.289 125.903 103.148C125.731 102.992 125.645 102.789 125.645 102.539C125.645 102.289 125.731 102.094 125.903 101.953C126.074 101.797 126.285 101.719 126.535 101.719H135.348C135.504 101.156 135.684 100.641 135.887 100.172C136.106 99.7031 136.348 99.2969 136.614 98.9531C136.895 98.6094 137.199 98.3438 137.528 98.1562C137.871 97.9531 138.246 97.8516 138.653 97.8516C139.043 97.8516 139.379 97.9531 139.66 98.1562C139.957 98.3438 140.207 98.6094 140.41 98.9531C140.614 99.2969 140.77 99.7031 140.879 100.172C141.004 100.641 141.098 101.156 141.16 101.719H153.137C153.387 101.719 153.598 101.797 153.77 101.953C153.942 102.094 154.028 102.289 154.028 102.539ZM136.379 117.141C136.848 116.109 137.27 115 137.645 113.812C138.035 112.609 138.364 111.398 138.629 110.18C138.91 108.961 139.121 107.766 139.262 106.594C139.418 105.422 139.496 104.344 139.496 103.359H136.731C136.512 104.328 136.332 105.531 136.192 106.969C136.067 108.391 136.004 110.125 136.004 112.172C136.004 113.312 136.035 114.273 136.098 115.055C136.16 115.82 136.254 116.516 136.379 117.141ZM138.559 99.6094C138.418 99.6094 138.215 99.7656 137.949 100.078C137.684 100.375 137.418 100.922 137.153 101.719H139.403C139.324 101.062 139.207 100.547 139.051 100.172C138.91 99.7969 138.746 99.6094 138.559 99.6094ZM136.754 118.828V118.852V118.828ZM148.848 117.328C148.754 117.578 148.637 117.859 148.496 118.172C148.371 118.484 148.223 118.812 148.051 119.156C147.91 119.422 147.762 119.633 147.606 119.789C147.465 119.93 147.278 120 147.043 120C146.778 120 146.567 119.922 146.41 119.766C146.254 119.594 146.176 119.398 146.176 119.18C146.176 119.102 146.184 119.039 146.199 118.992C146.215 118.93 146.254 118.836 146.317 118.711C146.723 117.93 147.02 117.25 147.207 116.672C147.41 116.078 147.574 115.461 147.699 114.82C147.59 114.461 147.512 114.156 147.465 113.906C147.418 113.656 147.395 113.398 147.395 113.133C147.395 112.617 147.504 112.203 147.723 111.891C147.942 111.562 148.246 111.398 148.637 111.398C148.996 111.398 149.278 111.555 149.481 111.867C149.699 112.18 149.809 112.562 149.809 113.016C149.809 113.266 149.785 113.516 149.739 113.766C149.692 114.016 149.629 114.328 149.551 114.703C149.91 115.594 150.27 116.383 150.629 117.07C150.989 117.758 151.309 118.391 151.59 118.969C151.871 119.531 152.098 120.062 152.27 120.562C152.457 121.062 152.551 121.562 152.551 122.062C152.551 122.719 152.418 123.344 152.153 123.938C151.887 124.531 151.449 125.031 150.84 125.438C150.918 125.453 150.996 125.461 151.074 125.461C151.153 125.461 151.231 125.461 151.309 125.461C152.199 125.461 153.02 125.258 153.77 124.852C154.52 124.445 155.192 123.922 155.785 123.281C156.395 122.625 156.934 121.906 157.403 121.125C157.871 120.328 158.278 119.539 158.621 118.758C158.778 118.398 158.996 118.219 159.278 118.219C159.543 118.219 159.746 118.312 159.887 118.5C160.043 118.688 160.121 118.891 160.121 119.109C160.121 119.234 160.098 119.352 160.051 119.461C159.879 119.883 159.653 120.367 159.371 120.914C159.106 121.445 158.778 122 158.387 122.578C158.012 123.141 157.574 123.695 157.074 124.242C156.574 124.789 156.012 125.281 155.387 125.719C154.778 126.141 154.106 126.477 153.371 126.727C152.637 126.992 151.832 127.125 150.957 127.125C149.91 127.125 148.934 126.938 148.028 126.562C147.137 126.203 146.41 125.602 145.848 124.758C145.754 124.617 145.707 124.469 145.707 124.312C145.707 124.078 145.793 123.875 145.965 123.703C146.153 123.516 146.364 123.422 146.598 123.422C146.848 123.422 147.059 123.508 147.231 123.68C147.246 123.711 147.301 123.766 147.395 123.844C147.489 123.906 147.598 123.984 147.723 124.078C147.864 124.156 148.02 124.227 148.192 124.289C148.379 124.352 148.567 124.383 148.754 124.383C149.129 124.383 149.442 124.305 149.692 124.148C149.957 123.992 150.168 123.805 150.324 123.586C150.481 123.352 150.59 123.109 150.653 122.859C150.731 122.594 150.77 122.367 150.77 122.18C150.77 121.789 150.707 121.398 150.582 121.008C150.457 120.617 150.293 120.227 150.09 119.836C149.903 119.445 149.692 119.047 149.457 118.641C149.239 118.219 149.035 117.781 148.848 117.328Z" fill="#51383B"/>
<path d="M45.5766 29.5767C48.1391 29.5767 50.7537 29.8163 53.4204 30.2955C56.087 30.7538 58.6808 31.4621 61.2016 32.4205C63.7224 33.3788 66.0974 34.5871 68.3266 36.0455C70.5558 37.483 72.5037 39.1705 74.1704 41.108C75.837 43.0455 77.1495 45.233 78.1079 47.6705C79.087 50.108 79.5766 52.8059 79.5766 55.7642C79.5766 58.7225 79.0558 61.4621 78.0141 63.983C76.9724 66.5038 75.5141 68.6809 73.6391 70.5142C71.7641 72.3475 69.5245 73.785 66.9204 74.8267C64.3162 75.8684 61.4516 76.3892 58.3266 76.3892C56.8474 76.3892 55.3162 76.2746 53.7329 76.0455C52.1495 75.8371 50.5662 75.5038 48.9829 75.0455C47.3995 74.5871 45.837 74.0246 44.2954 73.358C42.7745 72.6705 41.3162 71.858 39.9204 70.9205C38.2745 72.5455 36.3683 73.8163 34.2016 74.733C32.0558 75.6288 29.7849 76.0767 27.3891 76.0767C26.0974 76.0767 24.8891 75.9309 23.7641 75.6392C22.6391 75.3475 21.6599 74.9309 20.8266 74.3892C20.0141 73.8475 19.3683 73.1913 18.8891 72.4205C18.4308 71.6496 18.2016 70.7955 18.2016 69.858C18.2016 69.0455 18.3995 68.285 18.7954 67.5767C19.212 66.8684 19.7849 66.2434 20.5141 65.7017C21.2641 65.16 22.1495 64.733 23.1704 64.4205C24.212 64.108 25.3474 63.9517 26.5766 63.9517C30.2016 63.9517 34.4933 65.285 39.4516 67.9517C40.3683 66.8059 41.1183 65.5142 41.7016 64.0767C42.3474 62.4725 42.8474 60.8267 43.2016 59.1392C43.5766 57.4309 43.8995 55.733 44.1704 54.0455C44.462 52.358 44.7537 50.7121 45.0454 49.108C45.3579 47.5038 45.7745 45.9934 46.2954 44.5767C46.837 43.16 47.5349 41.8684 48.3891 40.7017C49.2641 39.5142 50.3995 38.5038 51.7954 37.6705C52.0037 37.5663 52.1912 37.5142 52.3579 37.5142C52.6495 37.5142 52.9204 37.6184 53.1704 37.8267C53.4412 38.035 53.5766 38.3267 53.5766 38.7017C53.5766 39.1392 53.3787 39.4725 52.9829 39.7017C51.8787 40.3475 50.9724 41.16 50.2641 42.1392C49.5766 43.0975 49.0037 44.1809 48.5454 45.3892C48.087 46.5975 47.7224 47.8996 47.4516 49.2955C47.1808 50.6913 46.9204 52.1496 46.6704 53.6705C46.462 54.9205 46.2329 56.233 45.9829 57.608C45.7329 58.9621 45.4204 60.3163 45.0454 61.6705C44.6704 63.0038 44.1912 64.3163 43.6079 65.608C43.0454 66.8788 42.3474 68.0559 41.5141 69.1392C41.5558 69.16 41.5766 69.1809 41.5766 69.2017C41.5974 69.2017 41.6287 69.2121 41.6704 69.233C44.3162 70.8163 47.0662 72.0142 49.9204 72.8267C52.7745 73.6392 55.5662 74.0455 58.2954 74.0455C61.2537 74.0455 63.8995 73.5559 66.2329 72.5767C68.587 71.5975 70.5766 70.285 72.2016 68.6392C73.8266 66.9725 75.0662 65.035 75.9204 62.8267C76.7745 60.6184 77.2016 58.285 77.2016 55.8267C77.2016 53.3267 76.7849 51.0038 75.9516 48.858C75.1183 46.6913 73.9724 44.7225 72.5141 42.9517C71.0766 41.1809 69.3579 39.608 67.3579 38.233C65.3787 36.858 63.2329 35.7121 60.9204 34.7955C58.6287 33.858 56.212 33.1496 53.6704 32.6705C51.1495 32.1705 48.6183 31.9205 46.0766 31.9205C42.6599 31.9205 39.5349 32.2121 36.7016 32.7955C33.8891 33.358 31.462 34.1913 29.4204 35.2955C27.3995 36.3996 25.8266 37.7538 24.7016 39.358C23.5766 40.9621 23.0141 42.785 23.0141 44.8267C23.0141 45.9934 23.1808 47.0246 23.5141 47.9205C23.8683 48.8163 24.3058 49.5975 24.8266 50.2642C25.3683 50.91 25.9516 51.4621 26.5766 51.9205C27.2016 52.3788 27.7849 52.7538 28.3266 53.0455C28.8683 53.3163 29.3266 53.5142 29.7016 53.6392C30.0974 53.7642 30.3266 53.8371 30.3891 53.858C30.6599 53.9205 30.8683 54.0663 31.0141 54.2955C31.1808 54.5038 31.2641 54.7434 31.2641 55.0142C31.2641 55.3684 31.1391 55.6392 30.8891 55.8267C30.6391 56.0142 30.3683 56.108 30.0766 56.108C29.6599 56.108 29.1391 56.0142 28.5141 55.8267C27.8891 55.6184 27.2224 55.3163 26.5141 54.9205C25.8266 54.5038 25.1287 53.9934 24.4204 53.3892C23.7329 52.7642 23.1079 52.035 22.5454 51.2017C21.9829 50.3684 21.5245 49.4205 21.1704 48.358C20.837 47.2955 20.6704 46.1184 20.6704 44.8267C20.6704 42.4725 21.2641 40.358 22.4516 38.483C23.6599 36.5871 25.3579 34.983 27.5454 33.6705C29.7329 32.358 32.3474 31.3475 35.3891 30.6392C38.4516 29.9309 41.8474 29.5767 45.5766 29.5767ZM37.7641 69.733C35.5974 68.5871 33.587 67.7225 31.7329 67.1392C29.8787 66.5559 28.1808 66.2642 26.6391 66.2642C25.7641 66.2642 24.9516 66.3684 24.2016 66.5767C23.4724 66.7642 22.837 67.0246 22.2954 67.358C21.7537 67.6913 21.3266 68.0767 21.0141 68.5142C20.7016 68.9517 20.5454 69.41 20.5454 69.8892C20.5454 70.3475 20.6808 70.8059 20.9516 71.2642C21.2433 71.7225 21.6704 72.1288 22.2329 72.483C22.8162 72.8371 23.5349 73.1288 24.3891 73.358C25.2433 73.5871 26.2433 73.7017 27.3891 73.7017C29.3474 73.7017 31.212 73.358 32.9829 72.6705C34.7745 71.9621 36.3683 70.983 37.7641 69.733ZM86.7016 72.108C87.1391 72.7121 87.7016 73.2017 88.3891 73.5767C89.0766 73.9309 89.9204 74.108 90.9204 74.108C91.9412 74.108 92.8683 73.8684 93.7016 73.3892C94.5349 72.8892 95.2954 72.2434 95.9829 71.4517C96.6704 70.66 97.2849 69.7746 97.8266 68.7955C98.3683 67.8163 98.8579 66.8371 99.2954 65.858C99.3995 65.6288 99.5454 65.4621 99.7329 65.358C99.9204 65.233 100.129 65.1705 100.358 65.1705C100.712 65.1705 100.993 65.2955 101.202 65.5455C101.431 65.7955 101.545 66.0663 101.545 66.358C101.545 66.4621 101.535 66.5559 101.514 66.6392C101.493 66.7017 101.462 66.7746 101.42 66.858C99.9829 70.0246 98.4099 72.41 96.7016 74.0142C95.0141 75.6184 93.0974 76.4413 90.9516 76.483C89.5766 76.483 88.3891 76.2121 87.3891 75.6705C86.3891 75.1496 85.5662 74.4725 84.9204 73.6392C84.2745 72.785 83.7954 71.8267 83.4829 70.7642C83.1704 69.7017 83.0141 68.6392 83.0141 67.5767C83.0141 66.5142 83.1391 65.535 83.3891 64.6392C83.6599 63.7434 84.0349 62.9621 84.5141 62.2955C85.0141 61.6288 85.5974 61.108 86.2641 60.733C86.9516 60.358 87.7016 60.1705 88.5141 60.1705C88.9933 60.1705 89.462 60.2746 89.9204 60.483C90.3995 60.6705 90.8266 60.9517 91.2016 61.3267C91.5766 61.6809 91.8787 62.1184 92.1079 62.6392C92.337 63.16 92.4516 63.7538 92.4516 64.4205C92.4516 65.2746 92.3058 66.0767 92.0141 66.8267C91.7224 67.5767 91.3162 68.2746 90.7954 68.9205C90.2954 69.5663 89.6912 70.16 88.9829 70.7017C88.2745 71.2434 87.5141 71.7121 86.7016 72.108ZM85.7641 70.0767C86.4099 69.8059 86.9933 69.4621 87.5141 69.0455C88.0558 68.6288 88.5141 68.1705 88.8891 67.6705C89.2641 67.1705 89.5558 66.6496 89.7641 66.108C89.9724 65.5455 90.0766 64.983 90.0766 64.4205C90.0766 63.7955 89.9204 63.3267 89.6079 63.0142C89.2954 62.6809 88.9308 62.5142 88.5141 62.5142C87.9516 62.5142 87.4724 62.6705 87.0766 62.983C86.6808 63.2955 86.3579 63.7017 86.1079 64.2017C85.8579 64.7017 85.6704 65.2642 85.5454 65.8892C85.4412 66.4934 85.3891 67.0975 85.3891 67.7017C85.3891 68.0767 85.4204 68.4725 85.4829 68.8892C85.5662 69.3059 85.6599 69.7017 85.7641 70.0767ZM119.764 66.8892C119.639 67.1184 119.42 67.535 119.108 68.1392C118.816 68.7434 118.41 69.4309 117.889 70.2017C117.389 70.9517 116.785 71.733 116.077 72.5455C115.368 73.358 114.556 74.108 113.639 74.7955C112.722 75.4621 111.691 76.0142 110.545 76.4517C109.42 76.8892 108.191 77.108 106.858 77.108C105.67 77.108 104.618 76.8892 103.702 76.4517C102.785 76.035 102.004 75.4413 101.358 74.6705C100.712 73.8788 100.222 72.9517 99.8891 71.8892C99.5558 70.8267 99.3891 69.6496 99.3891 68.358C99.3891 67.108 99.5662 65.9413 99.9204 64.858C100.275 63.7538 100.754 62.7955 101.358 61.983C101.983 61.1705 102.702 60.535 103.514 60.0767C104.327 59.5975 105.191 59.358 106.108 59.358C106.795 59.358 107.42 59.483 107.983 59.733C108.545 59.9621 109.014 60.2746 109.389 60.6705C109.785 61.0663 110.087 61.5038 110.295 61.983C110.525 62.4621 110.639 62.9413 110.639 63.4205C110.639 63.8788 110.577 64.3059 110.452 64.7017C110.347 65.0975 110.202 65.4517 110.014 65.7642C109.847 66.0559 109.65 66.2955 109.42 66.483C109.191 66.6496 108.962 66.733 108.733 66.733C108.379 66.733 108.087 66.6184 107.858 66.3892C107.65 66.16 107.545 65.8788 107.545 65.5455C107.545 65.3788 107.577 65.233 107.639 65.108C107.722 64.983 107.806 64.858 107.889 64.733C107.993 64.5871 108.077 64.4205 108.139 64.233C108.222 64.0246 108.264 63.7642 108.264 63.4517C108.264 63.0142 108.056 62.6184 107.639 62.2642C107.243 61.91 106.733 61.733 106.108 61.733C105.525 61.733 104.962 61.91 104.42 62.2642C103.9 62.6184 103.441 63.0975 103.045 63.7017C102.65 64.285 102.327 64.983 102.077 65.7955C101.847 66.5871 101.733 67.4309 101.733 68.3267C101.733 69.1809 101.837 69.9934 102.045 70.7642C102.254 71.535 102.566 72.2225 102.983 72.8267C103.4 73.41 103.92 73.8788 104.545 74.233C105.191 74.5871 105.952 74.7642 106.827 74.7642C107.952 74.7642 108.993 74.5663 109.952 74.1705C110.91 73.7538 111.785 73.233 112.577 72.608C113.368 71.983 114.066 71.3059 114.67 70.5767C115.275 69.8267 115.785 69.1288 116.202 68.483C116.639 67.8163 116.972 67.2434 117.202 66.7642C117.452 66.2642 117.597 65.9517 117.639 65.8267C117.722 65.6184 117.858 65.4621 118.045 65.358C118.254 65.233 118.472 65.1705 118.702 65.1705C119.056 65.1705 119.337 65.2955 119.545 65.5455C119.775 65.7955 119.889 66.0767 119.889 66.3892C119.889 66.5142 119.847 66.6809 119.764 66.8892ZM132.045 72.108C131.525 72.108 131.066 72.0663 130.67 71.983C130.358 72.608 129.983 73.1913 129.545 73.733C129.108 74.2538 128.597 74.7121 128.014 75.108C127.452 75.5038 126.816 75.8163 126.108 76.0455C125.4 76.2746 124.629 76.3892 123.795 76.3892C122.816 76.3892 121.92 76.2121 121.108 75.858C120.295 75.5246 119.587 75.0559 118.983 74.4517C118.379 73.8267 117.91 73.0871 117.577 72.233C117.243 71.358 117.077 70.3996 117.077 69.358C117.077 68.0246 117.316 66.8684 117.795 65.8892C118.275 64.8892 118.827 64.0663 119.452 63.4205C120.077 62.7538 120.702 62.2642 121.327 61.9517C121.952 61.6184 122.42 61.4517 122.733 61.4517C123.087 61.4517 123.347 61.5455 123.514 61.733C123.702 61.9205 123.795 62.1705 123.795 62.483C123.795 62.8371 123.681 63.108 123.452 63.2955C123.243 63.4621 122.972 63.6288 122.639 63.7955C122.306 63.9621 121.952 64.2017 121.577 64.5142C121.202 64.8059 120.847 65.1809 120.514 65.6392C120.202 66.0975 119.941 66.6392 119.733 67.2642C119.525 67.8892 119.42 68.5871 119.42 69.358C119.42 70.0455 119.525 70.6913 119.733 71.2955C119.941 71.8788 120.243 72.3892 120.639 72.8267C121.035 73.2434 121.504 73.5767 122.045 73.8267C122.587 74.0559 123.191 74.1705 123.858 74.1705C125.045 74.1705 126.025 73.8996 126.795 73.358C127.587 72.7955 128.191 72.0871 128.608 71.233C127.379 70.5871 126.368 69.6705 125.577 68.483C124.785 67.2955 124.389 65.9621 124.389 64.483C124.389 63.2955 124.67 62.3267 125.233 61.5767C125.816 60.8267 126.577 60.4517 127.514 60.4517C128.077 60.4517 128.608 60.5871 129.108 60.858C129.608 61.1288 130.045 61.5559 130.42 62.1392C130.816 62.7225 131.129 63.4725 131.358 64.3892C131.587 65.3059 131.702 66.3996 131.702 67.6705C131.702 68.3371 131.618 69.035 131.452 69.7642C131.577 69.785 131.702 69.7955 131.827 69.7955C131.952 69.7955 132.087 69.7955 132.233 69.7955C132.941 69.7955 133.577 69.7121 134.139 69.5455C134.702 69.3788 135.212 69.1288 135.67 68.7955C136.129 68.4621 136.535 68.035 136.889 67.5142C137.264 66.9934 137.618 66.3892 137.952 65.7017C138.014 65.5767 138.15 65.4621 138.358 65.358C138.566 65.233 138.775 65.1705 138.983 65.1705C139.254 65.1705 139.504 65.285 139.733 65.5142C139.983 65.7225 140.108 66.0038 140.108 66.358C140.108 66.5246 140.066 66.7121 139.983 66.9205C139.9 67.108 139.816 67.285 139.733 67.4517C139.379 68.0767 138.962 68.6809 138.483 69.2642C138.025 69.8267 137.472 70.3267 136.827 70.7642C136.202 71.1809 135.493 71.5142 134.702 71.7642C133.91 72.0142 133.025 72.1288 132.045 72.108ZM126.702 64.233C126.702 64.6288 126.754 65.0455 126.858 65.483C126.962 65.9205 127.118 66.358 127.327 66.7955C127.556 67.2121 127.827 67.6184 128.139 68.0142C128.472 68.3892 128.858 68.7121 129.295 68.983C129.358 68.5455 129.389 68.1184 129.389 67.7017C129.389 67.1392 129.347 66.5663 129.264 65.983C129.181 65.3996 129.056 64.8684 128.889 64.3892C128.743 63.8892 128.556 63.4934 128.327 63.2017C128.097 62.8892 127.827 62.733 127.514 62.733C127.389 62.733 127.222 62.8267 127.014 63.0142C126.806 63.2017 126.702 63.608 126.702 64.233ZM141.17 62.7017C141.087 63.2642 140.983 63.7955 140.858 64.2955C140.733 64.7746 140.608 65.2017 140.483 65.5767C140.379 65.9309 140.285 66.2225 140.202 66.4517C140.118 66.6809 140.066 66.8059 140.045 66.8267C139.837 67.3059 139.472 67.5455 138.952 67.5455C138.66 67.5455 138.389 67.4413 138.139 67.233C137.889 67.0038 137.764 66.7225 137.764 66.3892C137.764 66.2642 137.785 66.1705 137.827 66.108C137.868 66.0455 137.931 65.9205 138.014 65.733C138.097 65.5455 138.202 65.233 138.327 64.7955C138.452 64.358 138.608 63.6809 138.795 62.7642C138.441 62.7642 138.077 62.7538 137.702 62.733C137.327 62.7121 136.983 62.6392 136.67 62.5142C136.337 62.3892 136.066 62.1913 135.858 61.9205C135.65 61.6496 135.545 61.2746 135.545 60.7955C135.545 60.4413 135.65 59.9621 135.858 59.358C136.045 58.7538 136.306 58.16 136.639 57.5767C136.972 56.9934 137.347 56.4934 137.764 56.0767C138.181 55.6392 138.597 55.4205 139.014 55.4205C139.493 55.4205 139.879 55.5975 140.17 55.9517C140.483 56.3059 140.722 56.7434 140.889 57.2642C141.056 57.7642 141.17 58.2955 141.233 58.858C141.316 59.4205 141.358 59.91 141.358 60.3267C141.712 60.3267 142.056 60.3267 142.389 60.3267C142.743 60.3059 143.077 60.2955 143.389 60.2955C144.577 60.2955 145.483 60.5559 146.108 61.0767C146.733 61.5975 147.045 62.4517 147.045 63.6392C147.045 64.1184 147.014 64.6184 146.952 65.1392C146.889 65.66 146.816 66.2017 146.733 66.7642C146.65 67.3059 146.577 67.8475 146.514 68.3892C146.452 68.9309 146.42 69.4621 146.42 69.983C146.42 70.733 146.525 71.358 146.733 71.858C146.941 72.3371 147.202 72.7225 147.514 73.0142C147.827 73.3059 148.16 73.5142 148.514 73.6392C148.868 73.7434 149.191 73.7955 149.483 73.7955C150.379 73.7955 151.222 73.5038 152.014 72.9205C152.806 72.3371 153.535 71.6392 154.202 70.8267C154.868 69.9934 155.462 69.1184 155.983 68.2017C156.525 67.285 156.972 66.483 157.327 65.7955C157.431 65.608 157.577 65.4621 157.764 65.358C157.952 65.2538 158.15 65.2017 158.358 65.2017C158.733 65.2017 159.025 65.3267 159.233 65.5767C159.441 65.8059 159.545 66.0663 159.545 66.358C159.545 66.5663 159.504 66.7538 159.42 66.9205C158.941 67.7746 158.379 68.7434 157.733 69.8267C157.108 70.8892 156.389 71.8892 155.577 72.8267C154.764 73.7642 153.847 74.5559 152.827 75.2017C151.827 75.8475 150.722 76.1705 149.514 76.1705C148.764 76.1705 148.056 76.0246 147.389 75.733C146.722 75.4621 146.139 75.0663 145.639 74.5455C145.16 74.0038 144.775 73.3475 144.483 72.5767C144.191 71.785 144.045 70.8996 144.045 69.9205C144.045 68.8788 144.15 67.8475 144.358 66.8267C144.566 65.785 144.67 64.7955 144.67 63.858C144.67 63.4621 144.577 63.1705 144.389 62.983C144.222 62.7746 143.837 62.6705 143.233 62.6705C142.941 62.6705 142.618 62.6705 142.264 62.6705C141.931 62.6705 141.566 62.6809 141.17 62.7017ZM139.077 60.3892C139.077 60.2434 139.066 60.0559 139.045 59.8267C139.045 59.5767 139.025 59.3371 138.983 59.108C138.962 58.8788 138.92 58.6809 138.858 58.5142C138.816 58.3475 138.764 58.2642 138.702 58.2642C138.639 58.2642 138.556 58.3475 138.452 58.5142C138.368 58.66 138.275 58.8475 138.17 59.0767C138.066 59.285 137.972 59.5142 137.889 59.7642C137.806 60.0142 137.743 60.2225 137.702 60.3892H139.077ZM161.077 72.108C161.514 72.7121 162.077 73.2017 162.764 73.5767C163.452 73.9309 164.295 74.108 165.295 74.108C166.316 74.108 167.243 73.8684 168.077 73.3892C168.91 72.8892 169.67 72.2434 170.358 71.4517C171.045 70.66 171.66 69.7746 172.202 68.7955C172.743 67.8163 173.233 66.8371 173.67 65.858C173.775 65.6288 173.92 65.4621 174.108 65.358C174.295 65.233 174.504 65.1705 174.733 65.1705C175.087 65.1705 175.368 65.2955 175.577 65.5455C175.806 65.7955 175.92 66.0663 175.92 66.358C175.92 66.4621 175.91 66.5559 175.889 66.6392C175.868 66.7017 175.837 66.7746 175.795 66.858C174.358 70.0246 172.785 72.41 171.077 74.0142C169.389 75.6184 167.472 76.4413 165.327 76.483C163.952 76.483 162.764 76.2121 161.764 75.6705C160.764 75.1496 159.941 74.4725 159.295 73.6392C158.65 72.785 158.17 71.8267 157.858 70.7642C157.545 69.7017 157.389 68.6392 157.389 67.5767C157.389 66.5142 157.514 65.535 157.764 64.6392C158.035 63.7434 158.41 62.9621 158.889 62.2955C159.389 61.6288 159.972 61.108 160.639 60.733C161.327 60.358 162.077 60.1705 162.889 60.1705C163.368 60.1705 163.837 60.2746 164.295 60.483C164.775 60.6705 165.202 60.9517 165.577 61.3267C165.952 61.6809 166.254 62.1184 166.483 62.6392C166.712 63.16 166.827 63.7538 166.827 64.4205C166.827 65.2746 166.681 66.0767 166.389 66.8267C166.097 67.5767 165.691 68.2746 165.17 68.9205C164.67 69.5663 164.066 70.16 163.358 70.7017C162.65 71.2434 161.889 71.7121 161.077 72.108ZM160.139 70.0767C160.785 69.8059 161.368 69.4621 161.889 69.0455C162.431 68.6288 162.889 68.1705 163.264 67.6705C163.639 67.1705 163.931 66.6496 164.139 66.108C164.347 65.5455 164.452 64.983 164.452 64.4205C164.452 63.7955 164.295 63.3267 163.983 63.0142C163.67 62.6809 163.306 62.5142 162.889 62.5142C162.327 62.5142 161.847 62.6705 161.452 62.983C161.056 63.2955 160.733 63.7017 160.483 64.2017C160.233 64.7017 160.045 65.2642 159.92 65.8892C159.816 66.4934 159.764 67.0975 159.764 67.7017C159.764 68.0767 159.795 68.4725 159.858 68.8892C159.941 69.3059 160.035 69.7017 160.139 70.0767ZM167.483 55.483C167.608 55.6705 167.67 55.8684 167.67 56.0767C167.67 56.3475 167.566 56.5871 167.358 56.7955C167.17 57.0038 166.931 57.108 166.639 57.108C166.285 57.108 166.004 56.9725 165.795 56.7017L163.233 53.0767L160.608 56.7017C160.4 56.9725 160.129 57.108 159.795 57.108C159.504 57.108 159.254 57.0038 159.045 56.7955C158.837 56.5871 158.733 56.3475 158.733 56.0767C158.733 55.8267 158.806 55.6184 158.952 55.4517L162.452 50.7017C162.66 50.4309 162.941 50.2955 163.295 50.2955C163.65 50.2955 163.92 50.4413 164.108 50.733L167.483 55.483Z" fill="#51383B"/>
</svg>
